<svg version="1.1" id="katman_1" xmlns="http://www.w3.org/2000/svg" xmlns:xlink="http://www.w3.org/1999/xlink" x="0px" y="0px"
	 fill="#000" viewBox="0 0 2996 1638.7" style="enable-background:new 0 0 2996 1638.7;" xml:space="preserve">
<path d="M500.3,989.2c-46.3,0-68.5-35.6-56.9-76.8c24-85.4,178.2-211.9,283.3-211.9c76.7,0,70.8,68.6,25.9,127.1L727.7,855
	C638.6,942.5,556,989.2,500.3,989.2z M875.9,413.5c-134.1,0.1-281.9,82.1-374.6,159.8l7.3,10.6C652.6,483,852.3,417.4,907.4,515.8
	c29.1,52-20.3,156.8-89.8,239.7c16.7-36.6,5.7-106.9-91.2-106.9c-161.2,0-478.4,213.5-478.4,431.9c0,87.5,60.7,144.6,160.7,144.6
	c267.7,0,630.7-438.8,630.7-659.2C1039.4,488.2,994.6,413.5,875.9,413.5z M1220.5,989.2c-15.5,0-28.5-5.5-36.6-15.3
	c-8.5-10.4-11-25.1-7-40.4c8.9-33.1,44.5-59,81.1-59h86.1l-30.7,114.7L1220.5,989.2L1220.5,989.2z M1468.1,645.1
	c-24.7-30.3-64.5-43.8-93.1-43.8h-156.6l-26.6,99.1h147.6l14.1,1.5c0.2,0,13.6,1.6,21,11.6c6.1,8.4,6.9,20.9,2.6,37.3l-7,26.1h-93
	c-80.1,0-191.7,57.4-216.5,150.2c-12.4,46.3-1.5,86.4,22.5,115.8c23.9,29.2,68.8,45.3,117.5,45.3h86.1l0,0h109.5l51.3-191.8
	l37.8-141C1500.3,700.1,1484.3,664.9,1468.1,645.1L1468.1,645.1z M2543.4,601.3c-42.3,0-81.7,12.5-113.7,36.3
	c-32.3,23.9-50.1,52.7-60.8,92.4c-23,85.9,44.5,127.4,98.8,156.8c38.9,21.1,72.5,39.3,65.3,66.3c-5.2,19.4-13.6,36.3-61.5,36.3
	h-146.2l-26.5,99.1h161.8c43.4,0,83.4-9.1,115.7-33.8c32.3-24.8,50.5-59.5,61.9-101.7c10.8-40.2,3.5-78.6-22.4-107.3
	c-21.5-24-52.6-40.8-80-55.5c-35-18.9-68.1-36.7-62.3-58.2c3.5-13,16.5-31.2,44.8-31.2h142.1l26.6-99.1L2543.4,601.3L2543.4,601.3
	L2543.4,601.3z M1695.1,601.3c-42.3,0-81.7,12.5-113.7,36.3c-32.3,23.9-50.1,52.7-60.8,92.4c-23,85.9,44.5,127.4,98.8,156.8
	c38.9,21.1,72.6,39.3,65.3,66.3c-5.2,19.4-13.6,36.3-61.5,36.3H1477l-26.6,99.1h161.8c43.4,0,83.5-9.1,115.7-33.8
	c32.3-24.8,50.6-59.5,61.9-101.7c10.8-40.2,3.5-78.6-22.3-107.3c-21.5-24-52.6-40.8-80-55.5c-35-18.9-68-36.7-62.2-58.2
	c3.5-13,16.5-31.2,44.7-31.2h142.1l26.6-99.1L1695.1,601.3L1695.1,601.3L1695.1,601.3z M1915.8,601.3l-126.9,487h107.2l126.8-487
	H1915.8z M2308.2,601.3c-188.7,0.7-287.5,126.4-318.9,243.5c-37.2,138.9,36.7,243.5,171.9,243.5h90.6l26.5-99.1h-90.6
	c-50.6,0-120.2-39.8-92.1-144.4c22.3-83.1,103.3-144.4,192.2-144.4h57.5l26.6-99.1H2308.2L2308.2,601.3z M2679.6,1066h9.4V1045h7.5
	c5,0,8.5,0.5,10.4,1.7c3.4,2,5.1,6.1,5.1,12.3v4.3l0.2,1.7c0.1,0.3,0.1,0.4,0.2,0.6l0.1,0.5h8.8l-0.3-0.6c-0.3-0.9-0.5-1.8-0.5-2.8
	c-0.1-1.3-0.1-2.7-0.1-4v-3.9c-0.1-3-1.1-5.9-2.9-8.3c-1.9-2.8-5-4.6-9.2-5.3c3.3-0.5,5.9-1.3,7.8-2.6c3.5-2.3,5.2-5.7,5.2-10.5
	c0-6.7-2.7-11.2-8.2-13.5c-3.1-1.3-8-1.9-14.6-1.9h-18.7L2679.6,1066 M2706.4,1037.2c-1.9,0.8-4.9,1.2-8.9,1.2h-8.5V1019h8
	c5.2,0,9,0.6,11.4,2c2.4,1.3,3.6,3.9,3.6,7.8C2712,1033,2710.1,1035.7,2706.4,1037.2L2706.4,1037.2z M2733.7,1005.1
	c-9.1-9.3-21.6-14.4-34.6-14.2c-13.4,0-24.8,4.7-34.3,14.2c-9.3,9-14.4,21.4-14.2,34.3c0,13.6,4.7,25.1,14.1,34.6
	c9.5,9.5,21,14.3,34.5,14.3c13.5,0,25-4.8,34.5-14.3c9.5-9.5,14.3-21.1,14.3-34.6C2748,1026,2743.2,1014.5,2733.7,1005.1z
	 M2728.8,1009.8c8.2,8.2,12.3,18.1,12.3,29.6c0,11.7-4.1,21.6-12.3,29.8c-8.1,8.2-18,12.4-29.6,12.4c-11.6,0-21.5-4.1-29.7-12.4
	c-8-7.9-12.3-18.7-12.1-29.8c0-11.6,4.1-21.4,12.2-29.6c7.7-8,18.4-12.5,29.6-12.3C2710.3,997.3,2721.1,1001.8,2728.8,1009.8
	L2728.8,1009.8z"/>
</svg>
